# xmcd
#
# Track frame offsets:
#	150
#	14898
#	28725
#	43479
#	56728
#	68489
#	82535
#	97769
#	110447
#	123567
#	134983
#	148720
#	163969
#	178717
#	192544
#	207298
#	220547
#	232308
#	246354
#	261588
#	274266
#	287386
#	298802
#	312539
#
# Disc length: 4370 seconds
#
# Revision: 0
# Processed by: cddbd v1.5.2PL0 Copyright (c) Steve Scherf et al.
# Submitted via: EasyCDDAExtractor 16.0.6.1
#
DISCID=8a111018
DTITLE=Γεωργίου Σωτήρης - Λαϊκά μοτίβα-LP, Σ. Γεωργίου
DYEAR=1978
DGENRE=Λαϊκή
TTITLE0=Γεωργίου Σωτήρης - Αν γίνεις φωτιά [Στ. Κάζου]
TTITLE1=Κουρτίδη Λίτσα-Γεωργίου Σωτήρης - Είσαι γκιουζέλ [Στ. Κάζου]
TTITLE2=Γεωργίου Σωτήρης - Φύγε πια από κοντά μου [Αντ. Μαύρου]
TTITLE3=Γεωργίου Σωτήρης - Πάρ' τη βέρα σου και στρίβε [Στ. Βαρτάνη]
TTITLE4=Γεωργίου Σωτήρης - Όχι να μην μού πης [Λ. Τσόλη-Μ. Βαρθάλη]
TTITLE5=Γεωργίου Σωτήρης - Μέσ' στην ταβέρνα τού Μηνά [Γ. Λεωτσάκου-Χ. Μαμούρη
TTITLE5=]
TTITLE6=Γεωργίου Σωτήρης-Κουρτίδη Λίτσα - Αδιαφορείς [Στ. Κάζου]
TTITLE7=Γεωργίου Σωτήρης - Ο πόνος δεν μοιράζεται [Π. Παναγιωτίδη-Γιάννη Βασιλ
TTITLE7=όπουλου]
TTITLE8=Γεωργίου Σωτήρης - Εκβιασμό μού κάνεις [Γ. Λεωτσάκου-Χ. Μαμούρη]
TTITLE9=Γεωργίου Σωτήρης-Κουρτίδη Λίτσα - Θα σού δώσω τα παπούτσια σου στο χέρ
TTITLE9=ι [Γ. Λεωτσάκου-Χ. Μαμούρη]
TTITLE10=Γεωργίου Σωτήρης - Λουλουδάκι, λουλουδάκι [Νίτσα Παπαγεωργίου-Μ. Βαρθ
TTITLE10=άλη]
TTITLE11=Γεωργίου Σωτήρης - Το κομποσκοίνι [Γ. Λεωτσάκου-Χ. Μαμούρη]
TTITLE12=Γεωργίου Σωτήρης - Track 13
TTITLE13=Γεωργίου Σωτήρης - Track 14
TTITLE14=Γεωργίου Σωτήρης - Track 15
TTITLE15=Γεωργίου Σωτήρης - Track 16
TTITLE16=Γεωργίου Σωτήρης - Track 17
TTITLE17=Γεωργίου Σωτήρης - Track 18
TTITLE18=Γεωργίου Σωτήρης - Track 19
TTITLE19=Γεωργίου Σωτήρης - Track 20
TTITLE20=Γεωργίου Σωτήρης - Track 21
TTITLE21=Γεωργίου Σωτήρης - Track 22
TTITLE22=Γεωργίου Σωτήρης - Track 23
TTITLE23=Γεωργίου Σωτήρης - Track 24
EXTD=
EXTT0=
EXTT1=
EXTT2=
EXTT3=
EXTT4=
EXTT5=
EXTT6=
EXTT7=
EXTT8=
EXTT9=
EXTT10=
EXTT11=
EXTT12=
EXTT13=
EXTT14=
EXTT15=
EXTT16=
EXTT17=
EXTT18=
EXTT19=
EXTT20=
EXTT21=
EXTT22=
EXTT23=
PLAYORDER=
